#!OML:ASF F:\VICON\USERDATA\INSTALL\rory3\rory3.ASF
:FULLY-SPECIFIED
:DEGREES
232
root -1.58707 16.3913 -6.98453 0.916108 2.49399 0.39471
lowerback 13.4158 1.30874 -5.5008
upperback -4.16707 0.97129 1.8723
thorax -12.3179 0.976235 4.95795
lowerneck -9.3244 -6.76162 -4.18716
upperneck 18.8784 -9.45316 4.13951
head 7.75072 -4.43841 1.13109
rclavicle 5.67779e-015 -1.35174e-014
rhumerus -36.3951 -8.73704 -78.4686
rradius 21.9238
rwrist 13.4714
rhand -10.6113 21.827
rfingers 7.12502
rthumb 15.3949 -7.5798
lclavicle 5.67779e-015 -1.35174e-014
lhumerus -41.0242 2.45726 87.346
lradius 22.9861
lwrist 0.082347
lhand -4.13126 20.8197
lfingers 7.12502
lthumb 21.6279 49.6318
rfemur -12.9383 14.5754 26.3814
rtibia 31.143
rfoot -18.0674 -8.56927
rtoes 38.1494
lfemur -30.7752 4.17474 -19.9871
ltibia 74.6914
lfoot -2.47009 1.15031
ltoes 13.9585
233
root -1.5939 16.3943 -6.86856 1.00261 2.46818 0.373009
lowerback 13.3052 1.39298 -5.52952
upperback -4.11545 1.086 1.87024
thorax -12.2085 1.02762 4.94376
lowerneck -9.61178 -6.83459 -4.16723
upperneck 18.9229 -9.53958 4.08864
head 7.81727 -4.47637 1.09129
rclavicle 5.13113e-015 -1.19271e-015
rhumerus -36.2154 -8.35111 -78.6029
rradius 22.7301
rwrist 12.9026
rhand -9.763 20.0244
rfingers 7.12502
rthumb 16.2119 -9.31768
lclavicle 5.13113e-015 -1.19271e-015
lhumerus -40.8848 2.47145 87.4582
lradius 22.9599
lwrist 0.290139
lhand -4.75583 19.945
lfingers 7.12502
lthumb 21.028 48.825
rfemur -12.3794 14.5342 26.5451
rtibia 30.8788
rfoot -18.37 -8.42101
rtoes 38.0414
lfemur -31.8349 3.90074 -20.214
ltibia 73.8011
lfoot -3.27799 1.16858
ltoes 12.3557
234
root -1.59942 16.3862 -6.75134 1.02514 2.48593 0.261124
lowerback 13.2733 1.43596 -5.41425
upperback -4.07305 1.1675 1.87429
thorax -12.1477 1.05444 4.86241
lowerneck -9.92373 -6.888 -4.25689
upperneck 19.065 -9.60521 4.13881
head 7.93062 -4.50089 1.10138
rclavicle -2.99419e-015 -1.59028e-015
rhumerus -35.9967 -7.92297 -78.7652
rradius 23.3596
rwrist 12.2674
rhand -9.35468 18.8141
rfingers 7.12502
rthumb 16.605 -10.4956
lclavicle -2.99419e-015 -1.59028e-015
lhumerus -40.8148 2.48948 87.562
lradius 23.1213
lwrist 0.440017
lhand -4.98351 19.8979
lfingers 7.12502
lthumb 20.8093 48.802
rfemur -11.7619 14.5223 26.8309
rtibia 30.6321
rfoot -18.7511 -8.26556
rtoes 38.091
lfemur -32.7281 3.52695 -20.3151
ltibia 72.8162
lfoot -4.27052 1.00265
ltoes 8.97944
235
root -1.60571 16.3748 -6.63583 1.02809 2.50772 0.106457
lowerback 13.3461 1.44826 -5.27248
upperback -4.08739 1.20873 1.89935
thorax -12.2091 1.06658 4.79938
lowerneck -9.95181 -6.88524 -4.38532
upperneck 19.1494 -9.59978 4.22469
head 7.97456 -4.49746 1.14809
rclavicle 2.3556e-014 1.51076e-014
rhumerus -35.57 -7.7765 -78.8746
rradius 23.5824
rwrist 11.9424
rhand -9.46057 19.1096
rfingers 7.12502
rthumb 16.5031 -10.2085
lclavicle 2.3556e-014 1.51076e-014
lhumerus -40.9211 2.4815 87.6765
lradius 23.3917
lwrist 0.509813
lhand -5.03678 19.9536
lfingers 7.12502
lthumb 20.7581 48.8634
rfemur -11.1227 14.6504 27.1891
rtibia 30.3838
rfoot -19.2387 -8.27957
rtoes 38.1123
lfemur -33.5022 3.15544 -20.3156
ltibia 71.7272
lfoot -5.14295 0.729139
ltoes 7.77803
236
root -1.61153 16.3661 -6.52505 1.0471 2.57317 0.00457297
lowerback 13.5501 1.46098 -5.14448
upperback -4.19759 1.23565 1.87997
thorax -12.4571 1.0785 4.69855
lowerneck -9.70375 -6.88637 -4.40127
upperneck 19.0507 -9.60607 4.2461
head 7.89943 -4.50588 1.16721
rclavicle 9.405e-015 3.1408e-014
rhumerus -35.2531 -7.7987 -78.9364
rradius 23.7119
rwrist 11.73
rhand -9.47014 19.4465
rfingers 7.12502
rthumb 16.4938 -9.87244
lclavicle 9.405e-015 3.1408e-014
lhumerus -41.0972 2.28787 87.8343
lradius 23.5947
lwrist 0.731553
lhand -5.07694 20.1697
lfingers 7.12502
lthumb 20.7195 49.0836
rfemur -10.4999 14.6846 27.4733
rtibia 30.1103
rfoot -19.6722 -8.21487
rtoes 38.3649
lfemur -34.3019 2.64899 -20.368
ltibia 70.4567
lfoot -5.73867 0.713678
ltoes 7.025
237
root -1.61416 16.3578 -6.40917 1.05803 2.7049 -0.0948132
lowerback 13.6359 1.47368 -5.01529
upperback -4.29416 1.27151 1.87806
thorax -12.6201 1.0922 4.6142
lowerneck -9.23541 -6.93921 -4.47142
upperneck 18.9136 -9.67806 4.25663
head 7.77764 -4.55505 1.193
rclavicle 6.88292e-015 1.07344e-014
rhumerus -35.1343 -7.5865 -79.0018
rradius 24.0531
rwrist 11.424
rhand -9.47023 18.6456
rfingers 7.12502
rthumb 16.4938 -10.6734
lclavicle 6.88292e-015 1.07344e-014
lhumerus -41.2774 2.18698 87.9796
lradius 23.769
lwrist 0.822682
lhand -5.07172 19.6611
lfingers 7.12502
lthumb 20.7245 48.5745
rfemur -9.81378 14.645 27.7525
rtibia 29.7626
rfoot -20.0639 -8.22439
rtoes 38.0697
lfemur -34.94 1.97894 -20.3931
ltibia 68.9442
lfoot -6.25806 0.829099
ltoes 7.19746
238
root -1.61474 16.3574 -6.28808 1.08672 2.9203 -0.120386
lowerback 13.6047 1.4729 -4.89782
upperback -4.27012 1.28531 1.80459
thorax -12.5683 1.08334 4.46147
lowerneck -9.38604 -7.001 -4.33023
upperneck 18.9362 -9.77134 4.19856
head 7.80615 -4.59146 1.1361
rclavicle -1.21756e-014 -4.57205e-015
rhumerus -34.8612 -7.33852 -79.1911
rradius 24.5199
rwrist 11.0123
rhand -9.22673 17.9746
rfingers 7.12502
rthumb 16.7282 -11.3246
lclavicle -1.21756e-014 -4.57205e-015
lhumerus -41.227 2.14413 87.9922
lradius 23.8749
lwrist 0.756935
lhand -4.9973 18.9616
lfingers 7.12502
lthumb 20.796 47.8671
rfemur -9.08265 14.5227 27.9471
rtibia 29.34
rfoot -20.362 -8.38265
rtoes 37.5985
lfemur -35.4343 1.18238 -20.4517
ltibia 67.2162
lfoot -6.73327 0.850285
ltoes 8.06039
239
root -1.61493 16.3564 -6.16762 1.1007 3.26336 -0.217794
lowerback 13.6532 1.41661 -4.71882
upperback -4.23571 1.23938 1.7924
thorax -12.5455 1.04542 4.35662
lowerneck -10.0152 -7.01695 -4.23044
upperneck 19.1691 -9.78277 4.10426
head 7.98668 -4.58268 1.06183
rclavicle 7.51655e-016 -7.35503e-015
rhumerus -34.5697 -6.87674 -79.3955
rradius 25.0268
rwrist 10.3097
rhand -9.16139 18.0793
rfingers 7.12502
rthumb 16.7911 -11.2147
lclavicle 7.51655e-016 -7.35503e-015
lhumerus -41.0773 1.97849 88.1742
lradius 24.0024
lwrist 1.02276
lhand -4.69786 19.5508
lfingers 7.12502
lthumb 21.0837 48.4246
rfemur -8.24728 14.2982 28.2122
rtibia 28.7741
rfoot -20.6233 -8.52994
rtoes 37.3905
lfemur -35.8855 0.20996 -20.4171
ltibia 65.3172
lfoot -7.05608 0.929444
ltoes 6.24355
240
root -1.61455 16.3515 -6.04651 1.1122 3.47708 -0.330111
lowerback 13.6532 1.3535 -4.57492
upperback -4.24868 1.18475 1.82282
thorax -12.5498 1.01036 4.32187
lowerneck -9.94778 -7.00421 -4.3142
upperneck 19.0128 -9.7548 4.15933
head 7.92864 -4.57375 1.10062
rclavicle -2.27981e-015 1.23246e-014
rhumerus -34.3157 -6.4879 -79.5308
rradius 25.3691
rwrist 9.9369
rhand -9.38046 18.5039
rfingers 7.12502
rthumb 16.5802 -10.8078
lclavicle -2.27981e-015 1.23246e-014
lhumerus -41.042 2.00559 88.281
lradius 24
lwrist 1.07429
lhand -4.40097 19.3128
lfingers 7.12502
lthumb 21.3689 48.1545
rfemur -7.32746 14.1127 28.4942
rtibia 28.05
rfoot -20.74 -8.67071
rtoes 37.09
lfemur -36.2275 -0.714404 -20.3254
ltibia 63.2332
lfoot -7.21983 1.0967
ltoes 5.52346
241
root -1.60605 16.3601 -5.91416 1.04736 3.29086 -0.374528
lowerback 13.5147 1.39804 -4.42566
upperback -4.19902 1.27572 1.79782
thorax -12.4135 1.03549 4.18639
lowerneck -9.68951 -6.97661 -4.40097
upperneck 18.7994 -9.71436 4.23896
head 7.81839 -4.56137 1.15696
rclavicle -7.82093e-015 -6.75868e-015
rhumerus -34.0098 -6.02145 -79.7686
rradius 25.6709
rwrist 9.59521
rhand -9.48872 18.5523
rfingers 7.12502
rthumb 16.476 -10.7681
lclavicle -7.82093e-015 -6.75868e-015
lhumerus -41.1686 2.09358 88.3119
lradius 24.1219
lwrist 0.962612
lhand -4.71062 18.5146
lfingers 7.12502
lthumb 21.0714 47.3897
rfemur -6.25118 14.0704 28.6635
rtibia 27.2431
rfoot -20.6934 -8.69121
rtoes 36.4888
lfemur -36.2482 -1.30876 -20.2846
ltibia 60.9477
lfoot -7.68777 1.45747
ltoes 3.95717
